<svg width="64" height="64" viewBox="0 0 64 64" fill="none" xmlns="http://www.w3.org/2000/svg">
<rect width="64" height="64" rx="12" fill="#DCFBF9"/>
<path d="M26.3156 35.0615C26.0498 35.0615 25.7816 34.9848 25.5469 34.8292L23.7364 33.6221C23.0993 33.1958 22.9245 32.3313 23.3508 31.6919L34.6211 14.8007C35.0474 14.1613 35.912 13.9888 36.5514 14.4151L38.3619 15.6221C38.999 16.0484 39.1738 16.913 38.7475 17.5524L27.4772 34.4436C27.2065 34.8459 26.7659 35.0615 26.3156 35.0615ZM35.7779 15.021C35.5982 15.021 35.4234 15.1072 35.3156 15.2677L24.0453 32.1589C23.8753 32.4127 23.9447 32.7576 24.1986 32.9252L26.0091 34.1322C26.263 34.3023 26.6054 34.2328 26.7755 33.979L38.0458 17.0878C38.2159 16.8339 38.1464 16.4891 37.8925 16.3215L36.082 15.1144C35.991 15.0498 35.8832 15.021 35.7779 15.021Z" fill="#01238C" stroke="#01238C" stroke-width="0.4"/>
<path d="M14 45.7042L21.0266 35.1739C21.5008 34.4626 22.4683 34.271 23.1796 34.7452L24.7219 35.775C25.4308 36.2468 25.6248 37.2047 25.1602 37.916C24.9015 38.3591 20.5836 45.5988 14.7999 45.6922L14 45.7042ZM22.3174 35.3223C22.0875 35.3223 21.86 35.4349 21.7235 35.6409L15.6237 44.7846C20.5907 44.0302 24.401 37.5544 24.4417 37.4849L24.4561 37.4634C24.674 37.1353 24.5854 36.6922 24.2573 36.4719L22.715 35.4421C22.5905 35.3607 22.454 35.3223 22.3174 35.3223Z" fill="#01238C" stroke="#01238C" stroke-width="0.4"/>
<path d="M24.742 36.7117C24.6629 36.7117 24.5815 36.6901 24.5097 36.6422C24.3181 36.5129 24.2654 36.2543 24.3947 36.0603L25.5514 34.3288C25.6808 34.1372 25.9394 34.0845 26.1334 34.2138C26.325 34.3431 26.3777 34.6018 26.2484 34.7958L25.0916 36.5273C25.0102 36.6446 24.8761 36.7117 24.742 36.7117Z" fill="#01238C" stroke="#01238C" stroke-width="0.4"/>
<path d="M22.709 35.356C22.63 35.356 22.5486 35.3344 22.4767 35.2865C22.2851 35.1572 22.2324 34.8985 22.3618 34.7045L23.5185 32.973C23.6478 32.7815 23.9065 32.7288 24.1004 32.8581C24.292 32.9874 24.3447 33.2461 24.2154 33.44L23.0587 35.1716C22.9772 35.2889 22.8455 35.356 22.709 35.356Z" fill="#01238C" stroke="#01238C" stroke-width="0.4"/>
<path d="M37.3562 49.819L35.4762 43.1684L34.6332 45.3358C34.5493 45.5513 34.3051 45.6591 34.0895 45.5753C33.874 45.4915 33.7662 45.2496 33.85 45.034L35.6007 40.5317L37.4783 47.1823L38.4243 44.7491L40.3713 44.7395L40.5222 44.2677C41.3532 41.6597 42.9339 39.4013 45.0917 37.7416L45.1443 37.7033C46.167 36.8339 47.3165 35.7155 47.9416 34.9803C48.1044 34.7887 48.2649 34.5708 48.4158 34.3313C48.6026 34.0367 48.7534 33.7326 48.866 33.426C49.3043 32.2405 49.2612 31.1341 48.7391 30.1378C48.138 28.9907 46.9621 28.2291 45.6712 28.1501C43.3003 27.9992 42.2417 30.3749 42.1986 30.4755L41.8226 31.3449L41.4323 30.4803C41.382 30.3725 40.1845 27.8148 37.5861 28.265C36.4677 28.459 35.481 29.1655 34.9445 30.157C34.7793 30.4635 34.6571 30.7844 34.5829 31.1125C34.5565 31.2203 34.0201 33.6344 36.3455 35.694C36.6545 35.967 37.8016 36.9202 38.9104 37.8422C39.8612 38.6325 40.7569 39.3773 41.0898 39.6623C41.2646 39.8132 41.2838 40.079 41.1329 40.2538C40.982 40.4287 40.7162 40.4478 40.5414 40.297C40.2157 40.0168 39.3224 39.2719 38.374 38.4864C37.258 37.5596 36.106 36.6016 35.7875 36.319C33.0717 33.9122 33.7351 31.0383 33.7662 30.9186C33.8548 30.5234 34.0033 30.1282 34.2045 29.757C34.8607 28.5404 36.0701 27.6735 37.44 27.4364C39.7415 27.0388 41.1616 28.5452 41.7987 29.4649C42.3711 28.5859 43.6212 27.1825 45.7215 27.3071C47.3045 27.4029 48.7463 28.3369 49.4815 29.7427C50.1089 30.9401 50.1688 32.3124 49.6515 33.7086C49.5174 34.0702 49.3402 34.4271 49.1223 34.7719C48.9498 35.045 48.7678 35.294 48.5786 35.5167C47.9152 36.2951 46.7489 37.4303 45.6784 38.3403L45.6042 38.3978C43.5805 39.9521 42.1004 42.0668 41.3221 44.512L40.9868 45.5657L38.9991 45.5753L37.3562 49.819Z" fill="#01238C" stroke="#01238C" stroke-width="0.4"/>
<path d="M29.0521 49.5913L27.4715 45.635L25.9459 45.6422H25.9435C25.7136 45.6422 25.5244 45.4554 25.5244 45.2255C25.5244 44.9931 25.7112 44.8063 25.9411 44.8039L28.0367 44.7944L28.8988 46.9546L30.5728 40.8188L32.1535 44.7752L34.2418 44.7656H34.2442C34.4741 44.7656 34.6633 44.9524 34.6633 45.1823C34.6633 45.4146 34.4765 45.6014 34.2466 45.6038L31.5883 45.6158L30.7261 43.4556L29.0521 49.5913Z" fill="#01238C" stroke="#01238C" stroke-width="0.4"/>
<path d="M22.6288 45.6563C22.3989 45.6563 22.2097 45.4695 22.2097 45.2396C22.2097 45.0073 22.3965 44.8205 22.6264 44.8181L24.1065 44.8109C24.334 44.8061 24.5256 44.9977 24.528 45.2276C24.528 45.4599 24.3412 45.6467 24.1113 45.6491L22.6288 45.6563Z" fill="#01238C" stroke="#01238C" stroke-width="0.4"/>
<path d="M19.641 45.6708C19.4111 45.6708 19.2219 45.484 19.2219 45.2541C19.2219 45.0218 19.4087 44.835 19.6386 44.8326L21.1187 44.8254H21.1211C21.351 44.8254 21.5402 45.0122 21.5402 45.2421C21.5402 45.4745 21.3534 45.6613 21.1235 45.6637L19.641 45.6708Z" fill="#01238C" stroke="#01238C" stroke-width="0.4"/>
<path d="M35.8789 16.0842L30.1096 24.7322C30.7083 24.6699 31.3142 24.6292 31.9202 24.61L37.0764 16.8841L35.8789 16.0842Z" fill="#39C3BC"/>
<path d="M47.9295 30.5661C47.6972 30.123 47.35 29.7566 46.9356 29.498C46.5453 29.2513 46.0926 29.1004 45.6209 29.0717C45.5682 29.0693 45.5179 29.0669 45.4676 29.0669C44.2965 29.0717 43.5684 29.9722 43.2451 30.4895C44.0977 30.5757 44.8808 31.0523 45.3406 31.7875C45.8005 32.5203 45.8891 33.3466 45.6137 34.3141C45.5418 34.568 45.4364 34.8218 45.3047 35.0733C45.1922 35.284 45.0748 35.4756 44.9503 35.6457C44.9072 35.7031 44.6964 35.9953 44.6437 36.0648C44.3947 36.4025 44.0426 36.9197 43.6642 37.7388C43.9444 37.4849 44.2342 37.243 44.536 37.0107L44.5719 36.9844C45.7166 36.0097 46.7584 34.9535 47.247 34.3836C47.3835 34.2255 47.5152 34.0435 47.6421 33.8399C47.793 33.6004 47.9176 33.3537 48.0086 33.1071C48.1762 32.652 48.2552 32.2234 48.2504 31.8138C48.2433 31.3756 48.1379 30.9613 47.9295 30.5661Z" fill="#39C3BC"/>
</svg>
