<svg width="64" height="64" viewBox="0 0 64 64" fill="none" xmlns="http://www.w3.org/2000/svg">
<rect width="64" height="64" rx="12" fill="#DCFBF9"/>
<path d="M46.9716 49.1115L46.7791 45.7366C46.7791 45.7281 46.6149 42.9449 44.1205 41.7614C43.0701 41.2631 42.0168 40.9998 41.0061 40.7478C39.01 40.2495 37.1668 39.7908 35.6379 37.7325C35.5331 37.5937 35.3944 36.2517 35.3831 35.0541C35.3803 34.8106 35.3831 34.5699 35.3887 34.3434C35.0688 34.6152 34.7347 34.8474 34.3865 35.0371C33.7268 35.3966 33.0218 35.5948 32.2885 35.5948C32.2715 35.5948 32.2772 35.5948 32.1979 35.592C30.9606 35.5665 29.7601 35.0059 28.7069 34.0801C28.823 35.5382 28.6786 37.8231 26.8071 38.5903C26.3258 38.7885 25.7199 38.9924 25.0375 39.2246C22.1326 40.2099 17.7724 41.6878 17.4411 44.4058V44.4087C17.1297 46.9625 17.0362 48.4546 17.0108 49.1143L46.9716 49.1115ZM32.7868 30.2578C33.1747 30.2578 33.5258 30.4164 33.7777 30.6684L33.7806 30.6712C33.9504 30.8411 34.075 31.0506 34.1401 31.2884C35.4567 31.246 36.7223 30.9742 37.8123 30.5155C38.9165 30.0511 39.8396 29.3943 40.454 28.5902V25.8382H40.4568C40.4568 24.8897 40.4794 23.9355 40.4794 22.9871C40.4794 22.9757 40.4766 22.9644 40.4766 22.9502C40.4766 20.7277 39.5366 18.7146 38.019 17.2565C36.4958 15.7956 34.3893 14.8924 32.062 14.8924C29.7346 14.8924 27.6281 15.7956 26.1049 17.2565C24.5873 18.7146 23.6473 20.7277 23.6473 22.9502V23.1201C23.6473 23.1683 23.6502 23.2249 23.653 23.29C23.653 23.2985 23.653 23.3098 23.653 23.3183C23.653 24.2753 23.6757 25.2351 23.6757 26.1921H23.6785V29.08C23.6785 29.3065 23.4944 29.4906 23.2679 29.4906C22.3563 29.4906 21.5324 29.1225 20.935 28.5251C20.9265 28.5166 20.9208 28.5081 20.9123 28.4996C20.3291 27.905 19.9695 27.0896 19.9695 26.1921C19.9695 25.2861 20.3347 24.4678 20.9265 23.8704C21.4248 23.3664 22.0873 23.0239 22.8263 22.9248C22.8348 20.4814 23.8682 18.2701 25.5386 16.6676C27.2091 15.0622 29.5166 14.0713 32.062 14.0713C34.6073 14.0713 36.9148 15.0622 38.5853 16.6676C40.1737 18.1908 41.1873 20.2662 41.2892 22.5709C42.0338 22.6671 42.702 23.0125 43.206 23.5193C43.7977 24.1167 44.163 24.9378 44.163 25.841C44.163 26.7527 43.7949 27.5766 43.1975 28.174C42.6454 28.7261 41.9036 29.0828 41.0768 29.1338C40.3775 30.0342 39.3497 30.7618 38.1323 31.2743C36.9375 31.7754 35.5558 32.0699 34.1203 32.1123C34.0495 32.3218 33.9335 32.5087 33.7806 32.6588L33.7777 32.6616C33.5229 32.9164 33.1718 33.0721 32.7868 33.0721C32.3989 33.0721 32.0478 32.9136 31.7958 32.6616L31.793 32.6588C31.5382 32.404 31.3825 32.0529 31.3825 31.6678C31.3825 31.2799 31.541 30.9289 31.793 30.674C32.045 30.4164 32.3961 30.2578 32.7868 30.2578ZM33.2001 31.2488C33.0954 31.144 32.9482 31.0789 32.7868 31.0789C32.6254 31.0789 32.481 31.144 32.3734 31.2488C32.2658 31.3535 32.2035 31.5008 32.2035 31.6622C32.2035 31.8235 32.2687 31.9708 32.3734 32.0755C32.4782 32.1803 32.6254 32.2454 32.7868 32.2454C32.9482 32.2454 33.0954 32.1803 33.2001 32.0755L33.203 32.0727C33.3077 31.9679 33.3729 31.8235 33.3729 31.6593C33.37 31.5008 33.3049 31.3564 33.2001 31.2488ZM41.2722 25.8382V28.2816C41.7903 28.1938 42.2575 27.9475 42.6142 27.5908C43.0616 27.1434 43.339 26.5234 43.339 25.8382C43.339 25.1558 43.0644 24.5414 42.6227 24.0941C42.2688 23.7373 41.8073 23.4882 41.292 23.3976L41.2722 25.8382ZM22.8517 28.6327V26.1893H22.8546L22.8348 23.7487C22.3195 23.8393 21.858 24.0884 21.504 24.4452C21.0595 24.8925 20.7877 25.5097 20.7877 26.1893C20.7877 26.8631 21.0567 27.4747 21.4927 27.922L21.5125 27.9418C21.8693 28.2986 22.3336 28.5477 22.8517 28.6327ZM36.2919 33.4119C36.2127 33.7035 36.19 34.3519 36.1985 35.0427C36.2098 36.1073 36.2608 37.1945 36.2948 37.2398C37.6481 39.0603 39.3554 39.485 41.2014 39.9465C42.2547 40.2099 43.3475 40.4817 44.4716 41.0139C47.4076 42.4098 47.5973 45.6686 47.5973 45.6771L47.8125 49.4654C47.8153 49.4824 47.8153 49.4994 47.8153 49.5163C47.8153 49.7428 47.6313 49.9269 47.4048 49.9269H16.5861C16.3596 49.9269 16.1755 49.7428 16.1755 49.5163C16.1755 49.5107 16.1755 47.9789 16.6257 44.3011C17.0221 41.0706 21.6739 39.4935 24.7742 38.4431C25.4537 38.2138 26.0539 38.0099 26.4956 37.8287C28.4747 37.0161 27.866 33.6695 27.7414 33.0778C27.5234 32.8145 27.3139 32.537 27.1185 32.2426C25.8105 30.3003 24.9639 27.7097 24.9639 25.0737C24.9639 25.0369 24.9667 24.952 24.9696 24.8161C25.0234 22.2028 25.7652 20.1812 26.943 18.7797C28.2397 17.2338 30.0574 16.4467 32.0705 16.4467C34.0297 16.4467 35.7002 17.2763 36.9148 18.7656C38.0898 20.2095 38.8288 22.2736 38.9703 24.8019C38.9873 25.1134 38.993 25.4305 38.9845 25.7504C38.976 26.0788 38.9562 26.4044 38.925 26.7272C38.9052 26.9537 38.7042 27.1179 38.4805 27.0953C38.254 27.0755 38.0898 26.8744 38.1125 26.6479C38.1436 26.3421 38.1606 26.0364 38.1691 25.7334C38.1748 25.4418 38.1719 25.1445 38.1549 24.8444C38.0219 22.4944 37.3508 20.5918 36.2806 19.2809C35.2245 17.987 33.7749 17.265 32.0733 17.265C30.3009 17.265 28.7069 17.9558 27.5744 19.3035C26.5098 20.5691 25.8416 22.418 25.7906 24.8302C25.7906 24.8614 25.7906 24.9406 25.7906 25.0709C25.7906 27.5426 26.5834 29.969 27.8037 31.7839C27.999 32.0755 28.2086 32.353 28.4266 32.6106C28.4379 32.622 28.4464 32.6333 28.4549 32.6446C29.5449 33.9272 30.8672 34.737 32.2205 34.7653C32.246 34.7653 32.2234 34.7653 32.2941 34.7653C32.8887 34.7653 33.4606 34.601 34.0014 34.3094C34.5903 33.9895 35.1424 33.5138 35.6407 32.9249C35.788 32.7522 36.0456 32.7296 36.2183 32.8768C36.3655 33.0155 36.3967 33.242 36.2919 33.4119Z" fill="#01238C"/>
<path d="M47.4114 50H16.5926C16.3265 50 16.1113 49.7848 16.1113 49.5187C16.1113 49.4564 16.117 47.936 16.5615 44.2949C16.9635 41.0191 21.6522 39.4307 24.7553 38.3775C25.4093 38.1567 26.0294 37.9471 26.4711 37.7631C28.3709 36.9845 27.8188 33.788 27.6772 33.1085C27.462 32.848 27.2553 32.5705 27.06 32.2817C25.684 30.2347 24.894 27.6101 24.894 25.0732C24.894 25.0364 24.8969 24.9515 24.8997 24.8156C24.9506 22.324 25.6387 20.2232 26.8873 18.7368C28.1642 17.2164 30.0074 16.3783 32.0714 16.3783C34.025 16.3783 35.7209 17.188 36.9695 18.7226C38.187 20.2147 38.9033 22.3184 39.042 24.7986C39.059 25.1044 39.0647 25.4271 39.0562 25.7527C39.0477 26.0783 39.0279 26.4068 38.9967 26.7324C38.9854 26.8598 38.9231 26.9759 38.824 27.058C38.7249 27.1401 38.6004 27.1769 38.4729 27.1656C38.2096 27.1401 38.0143 26.9051 38.0398 26.6418C38.0709 26.3331 38.0879 26.0274 38.0964 25.7329C38.102 25.4385 38.0992 25.1412 38.0822 24.8495C37.9548 22.5703 37.3121 20.6592 36.2249 19.3257C35.166 18.0261 33.7305 17.3381 32.0714 17.3381C30.2961 17.3381 28.7163 18.0544 27.6262 19.3512C26.5192 20.6705 25.9076 22.5647 25.8595 24.8326C25.8595 24.8637 25.8595 24.943 25.8595 25.0704C25.8595 27.4204 26.59 29.8525 27.8612 31.7438C28.0566 32.0326 28.2633 32.3072 28.4785 32.5648C28.4869 32.5733 28.4983 32.5875 28.5096 32.6016C29.6364 33.9239 30.953 34.6685 32.2186 34.694C32.2356 34.694 32.2469 34.694 32.2894 34.694C32.8528 34.694 33.4162 34.5439 33.9627 34.2466C34.5318 33.938 35.0754 33.4765 35.5822 32.8791C35.7521 32.6781 36.0578 32.6526 36.2589 32.8225C36.4372 32.9725 36.4797 33.233 36.3636 33.434C36.2985 33.6889 36.2674 34.258 36.273 35.0394C36.2843 36.1125 36.3353 37.1204 36.3608 37.2082C37.6915 38.9947 39.4044 39.4223 41.2193 39.8753C42.281 40.1414 43.3768 40.4132 44.5036 40.9483C47.4255 42.3357 47.6634 45.535 47.6718 45.6709L47.887 49.4592C47.8899 49.4734 47.8899 49.496 47.8899 49.5158C47.8927 49.7848 47.6775 50 47.4114 50ZM32.0714 16.5199C30.0498 16.5199 28.2463 17.3409 26.9977 18.8302C25.7689 20.2912 25.095 22.3637 25.0412 24.8212C25.0384 24.9543 25.0356 25.0392 25.0356 25.0761C25.0356 27.5818 25.817 30.1809 27.1789 32.2053C27.3742 32.4969 27.5838 32.7744 27.7989 33.0348L27.8131 33.066C27.9518 33.7285 28.5436 37.0694 26.5249 37.8962C26.0775 38.0802 25.4575 38.2897 24.8006 38.5134C21.7315 39.5525 17.091 41.1267 16.7002 44.3147C16.2557 47.9473 16.2529 49.5074 16.2529 49.5215C16.2529 49.7084 16.4058 49.8613 16.5926 49.8613H47.4114C47.5982 49.8613 47.7511 49.7084 47.7511 49.5215C47.7511 49.5074 47.7511 49.4932 47.7483 49.479L47.5303 45.6851C47.5218 45.552 47.2924 42.4348 44.4442 41.0814C43.3315 40.5519 42.2442 40.2801 41.191 40.0197C39.3478 39.561 37.6094 39.125 36.2419 37.2875C36.1683 37.1884 36.1371 35.3961 36.1315 35.0479C36.1258 34.4986 36.1371 33.7851 36.2192 33.434L36.2079 33.4227L36.2362 33.3803C36.3268 33.2387 36.2957 33.049 36.1683 32.9414C36.0267 32.8197 35.8115 32.8395 35.6898 32.981C35.1716 33.5954 34.6139 34.0654 34.0278 34.3825C33.4615 34.6912 32.8755 34.8469 32.2865 34.8469C32.2469 34.8469 32.2384 34.8469 32.2328 34.8469H32.2101C30.9049 34.8186 29.5487 34.0569 28.3935 32.7007C28.3822 32.6866 28.3737 32.6781 28.3652 32.6696C28.1444 32.4063 27.932 32.126 27.7367 31.8344C26.4484 29.9204 25.7123 27.46 25.7123 25.0817C25.7123 24.9515 25.7123 24.8694 25.7123 24.841C25.7604 22.542 26.3833 20.6139 27.5101 19.2719C28.6285 17.9412 30.2452 17.2079 32.0629 17.2079C33.7645 17.2079 35.2396 17.9129 36.3268 19.2492C37.4339 20.6083 38.0851 22.5449 38.2153 24.8552C38.2323 25.1497 38.2379 25.4498 38.2295 25.7499C38.2238 26.0472 38.204 26.3586 38.1728 26.6701C38.1558 26.8569 38.2917 27.0212 38.4786 27.0381C38.5692 27.0466 38.657 27.0183 38.7278 26.9617C38.7985 26.9051 38.841 26.823 38.8495 26.7324C38.8807 26.4096 38.9005 26.084 38.909 25.7612C38.9175 25.4385 38.9118 25.1214 38.8948 24.8184C38.7561 22.3665 38.0511 20.2912 36.8534 18.8217C35.6388 17.3126 33.9825 16.5199 32.0714 16.5199ZM17.0145 49.1817H16.9409L16.9437 49.1081C16.972 48.4428 17.0626 46.9479 17.3741 44.3969C17.711 41.6335 22.108 40.1414 25.0186 39.1561C25.7066 38.9211 26.304 38.7201 26.7825 38.5219C28.6427 37.7574 28.7446 35.4131 28.6398 34.0824L28.6257 33.9097L28.7559 34.0258C29.8403 34.9799 31.0323 35.4952 32.2016 35.5207L32.2752 35.5236C32.2752 35.5236 32.2752 35.5236 32.2781 35.5236C32.9887 35.5236 33.6824 35.3395 34.3534 34.9743C34.6903 34.7902 35.0244 34.5609 35.3444 34.2891L35.4661 34.1872L35.4604 34.3457C35.4548 34.5609 35.4519 34.7987 35.4548 35.0536C35.4661 36.2965 35.6133 37.5762 35.6954 37.6895C37.2102 39.7252 39.0619 40.1867 41.0239 40.6765C42.0432 40.9313 43.0965 41.1946 44.1525 41.6958C46.6299 42.8736 46.8423 45.6143 46.8508 45.7304L47.049 49.1817H17.0145ZM17.0881 49.0402H46.9017L46.712 45.7389C46.7035 45.6256 46.4969 42.9642 44.0931 41.8232C43.0483 41.3277 42.0036 41.0672 40.9928 40.8153C39.0052 40.3198 37.1252 39.8526 35.5822 37.7744C35.4491 37.5961 35.3217 36.1294 35.3132 35.0536C35.3104 34.8582 35.3132 34.6713 35.316 34.4958C35.0273 34.7308 34.7271 34.9318 34.4214 35.0989C33.7277 35.4754 33.0114 35.6651 32.2894 35.6651L32.1988 35.6623C31.0408 35.6368 29.8658 35.1498 28.7927 34.2438C28.8777 35.634 28.7021 37.8905 26.8363 38.655C26.3521 38.8532 25.7547 39.057 25.0639 39.292C22.1873 40.266 17.8413 41.7383 17.5157 44.4138C17.2155 46.8686 17.1193 48.3437 17.0881 49.0402ZM32.7905 33.1396C32.397 33.1396 32.0289 32.9867 31.7486 32.7064C31.4683 32.4261 31.3154 32.0552 31.3154 31.6645C31.3154 31.2709 31.4683 30.9 31.7486 30.6197C32.0261 30.3423 32.397 30.1865 32.7934 30.1865C33.1869 30.1865 33.555 30.3394 33.8353 30.6197C34.0023 30.7868 34.1269 30.9935 34.2005 31.2143C35.4746 31.1662 36.7147 30.9029 37.7934 30.4499C38.9033 29.9827 39.8008 29.3315 40.3897 28.567L40.3926 25.7669C40.3926 25.3082 40.3982 24.8524 40.4039 24.3937C40.4096 23.9237 40.4152 23.4565 40.4152 22.9865C40.4152 22.9781 40.4124 22.9639 40.4124 22.9497C40.4124 20.8178 39.546 18.816 37.9746 17.307C36.3976 15.795 34.2996 14.9626 32.0657 14.9626C29.8318 14.9626 27.7338 15.795 26.1568 17.307C24.5854 18.816 23.719 20.8178 23.719 22.9497V23.1196C23.719 23.1678 23.7219 23.2244 23.7247 23.2867C23.7247 23.298 23.7247 23.3093 23.7247 23.3206C23.7247 23.7935 23.7304 24.2691 23.736 24.7448C23.7417 25.2035 23.7473 25.6621 23.7473 26.1208L23.7502 26.1916V29.0795C23.7502 29.3456 23.535 29.5608 23.2689 29.5608C22.3685 29.5608 21.5219 29.2097 20.8877 28.5727C20.8792 28.5614 20.8707 28.5529 20.8623 28.5444C20.245 27.9158 19.9024 27.0778 19.9024 26.1916C19.9024 25.2969 20.2507 24.456 20.8821 23.819C21.3889 23.3093 22.0542 22.9696 22.7621 22.862C22.7847 20.5007 23.7558 18.2838 25.4943 16.6161C27.2525 14.9287 29.5883 14 32.0685 14C34.5488 14 36.8846 14.9287 38.6428 16.6161C40.2878 18.1932 41.2505 20.2827 41.3637 22.5081C42.08 22.6128 42.751 22.9526 43.2607 23.4679C43.8921 24.1049 44.2403 24.9458 44.2403 25.8405C44.2403 26.7409 43.8892 27.5874 43.2522 28.2216C42.6803 28.7935 41.9215 29.1418 41.1174 29.1984C40.4265 30.0733 39.4073 30.8123 38.1643 31.3361C36.9639 31.84 35.5879 32.1317 34.1779 32.1798C34.1042 32.3751 33.9882 32.5592 33.8381 32.7092C33.5521 32.9867 33.1841 33.1396 32.7905 33.1396ZM32.7905 30.3281C32.4338 30.3281 32.0997 30.4668 31.8477 30.7188C31.5957 30.9708 31.457 31.3049 31.457 31.6617C31.457 32.0156 31.5957 32.3525 31.8477 32.6045C32.1025 32.8593 32.4366 32.998 32.7905 32.998C33.1444 32.998 33.4785 32.8593 33.7305 32.6073C33.8777 32.4601 33.991 32.2789 34.0561 32.0835L34.0731 32.0354L34.1212 32.0326C35.5312 31.9901 36.9101 31.7041 38.1077 31.2002C39.3393 30.682 40.3473 29.9487 41.0239 29.0823L41.0438 29.0569L41.0749 29.054C41.8563 29.0059 42.5953 28.6718 43.1503 28.114C43.759 27.5053 44.0959 26.6927 44.0959 25.832C44.0959 24.977 43.7618 24.1672 43.1588 23.5585C42.6548 23.0517 41.9894 22.7232 41.2844 22.6326L41.225 22.6241L41.2221 22.5647C41.1259 20.3563 40.1717 18.2781 38.5409 16.7095C36.811 15.0476 34.5091 14.1331 32.0657 14.1331C29.6223 14.1331 27.3204 15.0476 25.5905 16.7095C23.8634 18.3687 22.9093 20.5714 22.9008 22.9158V22.9781L22.8385 22.9865C22.1392 23.08 21.4795 23.4084 20.9812 23.9124C20.3781 24.5211 20.044 25.328 20.044 26.1859C20.044 27.0353 20.3724 27.8366 20.967 28.4453C20.9755 28.4566 20.984 28.4623 20.9897 28.4708C21.5984 29.0795 22.4081 29.4164 23.2717 29.4164C23.4585 29.4164 23.6114 29.2635 23.6114 29.0767L23.6086 26.1888C23.6086 25.7074 23.603 25.2261 23.5973 24.7448C23.5916 24.2691 23.586 23.7935 23.586 23.315V23.2895C23.5831 23.2244 23.5803 23.1678 23.5803 23.1196V22.9497C23.5803 20.781 24.4608 18.7396 26.0605 17.205C27.663 15.6676 29.795 14.8211 32.0657 14.8211C34.3364 14.8211 36.4684 15.6676 38.0709 17.205C39.6706 18.7396 40.5511 20.781 40.5511 22.9497C40.5511 22.9611 40.5511 22.9696 40.5511 22.9809C40.5511 23.4565 40.5455 23.9265 40.5398 24.3965C40.5341 24.8779 40.5285 25.3592 40.5285 25.8405L40.5256 28.618L40.5115 28.6378C39.9056 29.4306 38.9826 30.1044 37.8416 30.5858C36.7345 31.0529 35.4548 31.3219 34.1439 31.3644L34.0873 31.3672L34.0731 31.3134C34.0108 31.0926 33.8919 30.8915 33.7305 30.7273C33.4814 30.4668 33.1473 30.3281 32.7905 30.3281ZM32.7934 32.3185C32.6178 32.3185 32.4536 32.2506 32.329 32.1288C32.2073 32.0042 32.1393 31.84 32.1393 31.6645C32.1393 31.4889 32.2073 31.3247 32.3319 31.203C32.5782 30.9567 33.0114 30.9567 33.2577 31.203C33.3794 31.3276 33.4474 31.4918 33.4474 31.6673C33.4474 31.8429 33.3794 32.0071 33.2577 32.1288C33.1331 32.2506 32.9689 32.3185 32.7934 32.3185ZM32.7934 31.1492C32.6574 31.1492 32.5272 31.203 32.4309 31.2992C32.3347 31.3955 32.2809 31.5258 32.2809 31.6617C32.2809 31.8004 32.3347 31.9278 32.4309 32.0241C32.6235 32.2166 32.9661 32.2166 33.1558 32.0241C33.252 31.9278 33.3058 31.7976 33.3058 31.6588C33.3058 31.5201 33.252 31.3927 33.1558 31.2964C33.0595 31.203 32.9293 31.1492 32.7934 31.1492ZM22.7875 28.7652V28.6916C22.2864 28.5954 21.8306 28.3547 21.4681 27.9895L21.4483 27.9725C20.9783 27.4911 20.7207 26.8598 20.7207 26.1888C20.7207 25.5121 20.984 24.8722 21.4597 24.3937C21.8334 24.0171 22.309 23.768 22.83 23.6774L22.9121 23.6632L22.9319 26.2595H22.9291V28.5727L23.048 28.5925L22.7875 28.7652ZM22.7705 23.8331C22.3119 23.9294 21.8928 24.1587 21.5587 24.4928C21.1086 24.9458 20.8623 25.5489 20.8623 26.1888C20.8623 26.823 21.1057 27.4204 21.5474 27.8705L21.5644 27.8875C21.9042 28.2273 22.3232 28.451 22.7847 28.5472V26.118L22.7705 23.8331ZM41.208 28.3632L41.2051 25.8348L41.225 23.3093L41.3071 23.3235C41.828 23.4141 42.3009 23.6632 42.6774 24.0398C43.1531 24.5183 43.4164 25.1582 43.4164 25.8348C43.4164 26.5143 43.1503 27.1542 42.6689 27.6355C42.2924 28.0121 41.8139 28.2584 41.2901 28.3462L41.208 28.3632ZM41.3495 25.7867V25.8377V28.1961C41.811 28.1027 42.2329 27.8762 42.5698 27.5393C43.0257 27.0834 43.2748 26.4804 43.2748 25.8377C43.2748 25.1978 43.0285 24.5947 42.5783 24.1417C42.2442 23.8048 41.8252 23.5783 41.3665 23.482L41.3495 25.7867Z" fill="#01238C" stroke="#01238C" stroke-width="0.4"/>
</svg>
