<svg width="64" height="64" viewBox="0 0 64 64" fill="none" xmlns="http://www.w3.org/2000/svg">
<rect width="64" height="64" rx="12" fill="#DCFBF9"/>
<path d="M43.04 45.1126H27.0554V39.6462C27.0554 39.3799 27.2696 39.1658 27.5359 39.1658C27.8022 39.1658 28.0164 39.3799 28.0164 39.6462V44.1517H42.0791V39.6462C42.0791 39.3799 42.2933 39.1658 42.5596 39.1658C42.8259 39.1658 43.04 39.3799 43.04 39.6462V45.1126Z" fill="#01238C" stroke="#01238C" stroke-width="0.4"/>
<path d="M49.0116 40.1294H42.5596C42.2933 40.1294 42.0791 39.9153 42.0791 39.649C42.0791 39.3827 42.2933 39.1685 42.5596 39.1685H48.0507V38.1252C48.0507 37.6832 47.691 37.3235 47.249 37.3235H22.841C22.399 37.3235 22.0393 37.6832 22.0393 38.1252V39.1685H27.5304C27.7967 39.1685 28.0109 39.3827 28.0109 39.649C28.0109 39.9153 27.7967 40.1294 27.5304 40.1294H21.0784V38.1252C21.0784 37.1533 21.8691 36.3625 22.841 36.3625H47.249C48.2209 36.3625 49.0116 37.1533 49.0116 38.1252V40.1294Z" fill="#01238C" stroke="#01238C" stroke-width="0.4"/>
<path d="M49.522 49.6045C49.2557 49.6045 49.0415 49.3903 49.0415 49.124V47.5563C49.0415 46.211 47.946 45.1155 46.6007 45.1155H14.4805C14.2142 45.1155 14 44.9013 14 44.635C14 44.3687 14.2142 44.1545 14.4805 44.1545H46.598C48.4732 44.1545 49.9997 45.6811 49.9997 47.5563V49.124C50.0024 49.3876 49.7883 49.6045 49.522 49.6045Z" fill="#01238C" stroke="#01238C" stroke-width="0.4"/>
<path d="M49.522 49.6045H14V22.3768C14 19.7082 16.1717 17.5364 18.8404 17.5364H25.4435V16.559C25.4435 15.3647 26.4154 14.3955 27.607 14.3955H42.4879C43.6822 14.3955 44.6514 15.3674 44.6514 16.559V21.6795C44.6514 22.6953 43.8249 23.5245 42.8063 23.5245H41.0959C40.6483 23.5245 40.2255 23.7606 39.9921 24.145L38.9735 25.8143H31.1213L30.1027 24.145C29.8693 23.7633 29.4465 23.5245 28.999 23.5245H27.2885C26.2699 23.5245 25.4435 22.6981 25.4435 21.6795V21.1221H19.5241C19.2577 21.1221 19.0436 20.908 19.0436 20.6416C19.0436 20.3753 19.2577 20.1612 19.5241 20.1612H26.4044V21.6795C26.4044 22.1654 26.7998 22.5635 27.2885 22.5635H28.999C29.7787 22.5635 30.5172 22.9781 30.9236 23.6453L31.6594 24.8533H38.4327L39.1685 23.6453C39.5748 22.9781 40.3106 22.5635 41.0931 22.5635H42.8036C43.2896 22.5635 43.6877 22.1682 43.6877 21.6795V16.559C43.6877 15.8946 43.1495 15.3565 42.4851 15.3565H27.6042C26.9398 15.3565 26.4017 15.8973 26.4017 16.559V18.4974H18.8377C16.6989 18.4974 14.9582 20.238 14.9582 22.3768V48.6435H49.5192C49.7855 48.6435 49.9997 48.8577 49.9997 49.124C49.9997 49.3903 49.7883 49.6045 49.522 49.6045Z" fill="#01238C" stroke="#01238C" stroke-width="0.4"/>
<path d="M32.0681 16.6497C33.2075 17.7561 35.0361 19.9828 36.0409 23.5575H37.7102L38.5861 22.1188C38.9073 21.5917 39.4811 21.2677 40.0988 21.2677H42.0372C42.2376 21.2677 42.3969 21.1057 42.3969 20.908V16.6497H32.0681Z" fill="#39C3BC"/>
<path d="M41.6091 37.2548H32.999L33.01 34.2732C33.0128 33.3067 33.8035 32.5188 34.7699 32.5188H36.7934C36.8208 31.9559 37.0377 31.4041 37.4111 30.9565C37.9053 30.3663 38.6302 30.0093 39.3989 29.9764L42.6798 29.8391C42.9105 29.8254 43.0999 30.0066 43.1082 30.2345C43.1164 30.4624 42.9407 30.6545 42.7128 30.6628L39.4319 30.8001C38.8937 30.822 38.3885 31.0719 38.0426 31.4864C37.7076 31.8845 37.5621 32.3787 37.628 32.8757L37.6912 33.3424H36.9801H34.7699C34.2565 33.3424 33.8364 33.7598 33.8337 34.2759L33.8254 36.4312H41.6091C42.1362 36.4312 42.581 35.9727 42.581 35.4345V34.2677C42.581 33.7405 42.1637 33.3452 41.6091 33.3452C41.6091 33.3452 41.6091 33.3452 41.6063 33.3452C41.3784 33.3452 41.1945 33.1612 41.1945 32.9333C41.1945 32.7055 41.3784 32.5215 41.6063 32.5215H41.6091C42.6139 32.5215 43.4047 33.2875 43.4047 34.2677V35.4345C43.4047 36.4367 42.6002 37.2548 41.6091 37.2548Z" fill="#01238C" stroke="#01238C" stroke-width="0.4"/>
<path d="M47.2375 37.1132C46.7296 37.1132 46.2162 36.9732 45.7576 36.6822C45.1372 36.2868 44.7061 35.6718 44.5469 34.9497C44.3876 34.2304 44.5194 33.4918 44.9148 32.8686C45.733 31.5864 47.4434 31.2075 48.7256 32.0257C50.0078 32.8439 50.3867 34.5543 49.5685 35.8365C49.0441 36.6629 48.149 37.1132 47.2375 37.1132ZM47.2457 32.4183C46.606 32.4183 45.9801 32.734 45.6094 33.3134C45.3321 33.7499 45.2387 34.2688 45.3513 34.7712C45.4639 35.2764 45.7632 35.7075 46.1997 35.9848C47.1003 36.5586 48.3001 36.295 48.8739 35.3945C49.4477 34.4939 49.1841 33.2941 48.2836 32.7203C47.9623 32.5171 47.5999 32.4183 47.2457 32.4183Z" fill="#01238C" stroke="#01238C" stroke-width="0.4"/>
<path d="M30.841 37.3238H23.159C22.0141 37.3238 21.0806 36.393 21.0806 35.2454V33.6914H33.4273V34.6524H22.0443V35.2454C22.0443 35.8604 22.544 36.3628 23.1617 36.3628H30.8438V37.3238H30.841Z" fill="#01238C" stroke="#01238C" stroke-width="0.4"/>
<path d="M30.4983 40.1296H27.5359C27.2696 40.1296 27.0554 39.9155 27.0554 39.6492C27.0554 39.3829 27.2696 39.1687 27.5359 39.1687H30.4983C30.7647 39.1687 30.9788 39.3829 30.9788 39.6492C30.9788 39.9155 30.7647 40.1296 30.4983 40.1296Z" fill="#01238C"/>
<path d="M38.7074 27.9614H31.385C31.1571 27.9614 30.9731 27.7774 30.9731 27.5495C30.9731 27.3216 31.1571 27.1377 31.385 27.1377H38.7074C38.9353 27.1377 39.1192 27.3216 39.1192 27.5495C39.1192 27.7774 38.9353 27.9614 38.7074 27.9614Z" fill="#01238C" stroke="#01238C" stroke-width="0.4"/>
</svg>
