<svg width="64" height="64" viewBox="0 0 64 64" fill="none" xmlns="http://www.w3.org/2000/svg">
<rect width="64" height="64" rx="12" fill="#DCFBF9"/>
<path d="M32.0032 38.993C31.4256 38.993 30.8453 38.777 30.4056 38.3451L29.7472 37.6998C29.5677 37.5228 29.5651 37.2366 29.7394 37.0571C29.9164 36.8775 30.2026 36.8749 30.3821 37.0493L31.0405 37.6946C31.5687 38.2124 32.43 38.2124 32.9608 37.6946L33.6191 37.0493C33.7986 36.8723 34.0875 36.8775 34.2618 37.0571C34.4387 37.2366 34.4361 37.5254 34.254 37.6998L33.5957 38.3451C33.1611 38.777 32.5835 38.993 32.0032 38.993Z" fill="#01238C" stroke="#01238C" stroke-width="0.4"/>
<path d="M32.0074 50.0002L28.3411 46.3053L30.5684 38.127C30.6335 37.885 30.8859 37.7419 31.1279 37.807C31.3699 37.872 31.513 38.1244 31.4479 38.3664L29.3585 46.0372L32.0074 48.707L34.6563 46.0372L32.5668 38.3664C32.5017 38.1244 32.6449 37.8746 32.8869 37.807C33.1289 37.7419 33.3812 37.885 33.4463 38.127L35.6736 46.3053L32.0074 50.0002Z" fill="#01238C"/>
<path d="M32.0074 50.0002L28.3411 46.3053L30.5684 38.127C30.6335 37.885 30.8859 37.7419 31.1279 37.807C31.3699 37.872 31.513 38.1244 31.4479 38.3664L29.3585 46.0372L32.0074 48.707L34.6563 46.0372L32.5668 38.3664C32.5017 38.1244 32.6449 37.8746 32.8869 37.807C33.1289 37.7419 33.3812 37.885 33.4463 38.127L35.6736 46.3053L32.0074 50.0002Z" fill="#01238C" stroke="#01238C" stroke-width="0.4"/>
<path d="M37.302 46.5515C37.0912 46.5515 36.9013 46.4031 36.857 46.1872C36.805 45.94 36.9637 45.7006 37.2109 45.6486L44.3978 44.1602L43.4767 39.5545C43.2737 38.5423 42.7247 37.6212 41.9284 36.9655C41.4236 36.5518 40.9267 36.2864 40.4479 36.1823L40.4193 36.1745L36.1077 34.9229C35.9697 34.8839 35.837 34.8214 35.7173 34.7407C35.3791 34.5118 35.1579 34.1501 35.1111 33.7467L34.8821 31.7848L35.085 31.6287C36.2117 30.7544 37.0522 29.4299 37.4529 27.8973L37.5336 27.5877L37.8536 27.5591C38.3845 27.5122 38.7982 26.8305 38.7982 26.0082C38.7982 25.2406 38.4443 24.5953 37.9551 24.473C37.7105 24.4106 37.5622 24.1634 37.6247 23.9214C37.6871 23.6768 37.9343 23.5285 38.1763 23.5909C39.0792 23.8173 39.7089 24.8113 39.7089 26.0108C39.7089 27.1792 39.1026 28.1445 38.257 28.4047C37.8068 29.9217 36.9611 31.2488 35.8448 32.1855L36.014 33.6427C36.0296 33.7832 36.1077 33.9081 36.2247 33.9887C36.2664 34.0174 36.3132 34.0382 36.3601 34.0512L40.6586 35.3002C41.2727 35.4381 41.8946 35.7633 42.5061 36.2681C43.4637 37.0592 44.1246 38.165 44.3692 39.3828L45.4672 44.8757L37.3957 46.5489C37.3644 46.5489 37.3332 46.5515 37.302 46.5515Z" fill="#01238C" stroke="#01238C" stroke-width="0.4"/>
<path d="M25.8973 46.3856C25.866 46.3856 25.8348 46.383 25.8036 46.3752L18.5334 44.8686L19.6315 39.3757C19.8735 38.1605 20.5344 37.0546 21.4946 36.261C22.1061 35.7562 22.7332 35.4283 23.3576 35.2878L27.6406 34.044C27.6901 34.031 27.7343 34.0076 27.7759 33.9816C27.893 33.9035 27.9685 33.776 27.9867 33.6355L28.1558 32.1784C27.0422 31.2416 26.1965 29.9146 25.7437 28.3976C24.8981 28.1348 24.2944 27.1694 24.2944 26.0037C24.2944 24.8354 24.9033 23.8466 25.775 23.5994C26.017 23.5291 26.2694 23.6697 26.337 23.9117C26.4073 24.1536 26.2667 24.406 26.0248 24.4737C25.5486 24.609 25.2051 25.2517 25.2051 26.0037C25.2051 26.8259 25.6188 27.5077 26.1471 27.5545L26.4645 27.5831L26.5452 27.8928C26.9485 29.4254 27.7916 30.7498 28.9156 31.6241L29.1186 31.7803L28.8922 33.7396C28.8454 34.1455 28.6242 34.5072 28.2859 34.7362C28.1662 34.8169 28.0335 34.8793 27.8956 34.9183L23.571 36.1725C23.0844 36.2792 22.5822 36.5446 22.0774 36.961C21.2786 37.6219 20.727 38.5404 20.5266 39.55L19.6055 44.1556L25.9909 45.4775C26.2381 45.5295 26.3943 45.7689 26.3448 46.0161C26.298 46.2373 26.1106 46.3856 25.8973 46.3856Z" fill="#01238C" stroke="#01238C" stroke-width="0.4"/>
<path d="M25.8987 24.4911C25.6567 24.4911 25.4564 24.3012 25.4434 24.0566C25.4408 23.9941 25.3809 22.4901 25.9221 20.8248C26.0002 20.5854 26.2578 20.4553 26.4972 20.5334C26.7366 20.6115 26.8667 20.8691 26.7886 21.1084C26.2994 22.6098 26.3515 24.0045 26.3541 24.0175C26.3645 24.2673 26.1693 24.4807 25.9195 24.4911C25.9117 24.4911 25.9065 24.4911 25.8987 24.4911Z" fill="#01238C" stroke="#01238C" stroke-width="0.4"/>
<path d="M38.0701 24.4819C38.0623 24.4819 38.0545 24.4819 38.0467 24.4819C37.7969 24.4689 37.6017 24.2555 37.6147 24.0057C37.6147 23.9927 37.6746 22.5928 37.1906 21.0914C37.1125 20.852 37.2453 20.5944 37.4846 20.519C37.724 20.4409 37.9816 20.5736 38.0571 20.813C38.5957 22.4809 38.5281 23.9901 38.5255 24.0526C38.5099 24.2946 38.3095 24.4819 38.0701 24.4819Z" fill="#01238C" stroke="#01238C" stroke-width="0.4"/>
<path d="M34.861 22.0536C34.554 22.0536 34.2392 22.0354 33.9113 21.999C32.756 21.8715 31.7984 21.4057 30.8695 20.9556C30.6249 20.8385 30.3803 20.7188 30.1279 20.6017C29.1912 20.1723 28.4028 20.0709 27.7861 20.2946C27.3333 20.4586 26.9508 20.7864 26.7635 21.1689C26.6542 21.3953 26.3809 21.489 26.1546 21.3797C25.9282 21.2704 25.8345 20.9972 25.9438 20.7708C26.2352 20.1723 26.7921 19.6884 27.4738 19.4412C28.3221 19.1315 29.3421 19.246 30.5052 19.7768C30.7654 19.8939 31.0178 20.0188 31.2676 20.1385C32.1653 20.5757 33.011 20.9868 34.0102 21.0961C35.3138 21.2392 36.3937 21.0648 37.4111 20.547C37.6348 20.4325 37.9106 20.521 38.0225 20.7448C38.137 20.9686 38.0486 21.2444 37.8248 21.3563C36.9037 21.8247 35.9435 22.0536 34.861 22.0536Z" fill="#01238C" stroke="#01238C" stroke-width="0.4"/>
<path d="M32.0087 36.8963C31.8994 36.8963 31.7927 36.8572 31.7042 36.7792L28.3279 33.7356C28.1406 33.5691 28.1249 33.2802 28.2915 33.0929C28.4606 32.9055 28.6052 32.785 28.7925 32.9516L32.0061 35.8294L35.093 33.0649C35.2804 32.8957 35.5692 32.9139 35.7357 33.1013C35.9023 33.2886 35.8867 33.5775 35.6993 33.744L32.3079 36.7792C32.2272 36.8572 32.118 36.8963 32.0087 36.8963Z" fill="#01238C" stroke="#01238C" stroke-width="0.4"/>
<path d="M37.6215 42.1465C37.4368 42.1465 37.2728 42.0164 37.239 41.829C37.2 41.6182 37.3379 41.4127 37.5513 41.3736L41.5324 40.6243C41.7458 40.5826 41.9487 40.7231 41.9878 40.9365C42.0268 41.1473 41.8889 41.3528 41.6755 41.3919L37.6944 42.1413C37.671 42.1439 37.6449 42.1465 37.6215 42.1465Z" fill="#01238C" stroke="#01238C" stroke-width="0.4"/>
<path d="M26.253 21.7903C26.0006 21.7903 25.7976 21.5873 25.7976 21.3349V16.339C25.7976 15.051 26.8462 13.9998 28.1369 13.9998H35.7453C37.0333 13.9998 38.0845 15.0484 38.0845 16.339V20.9498C38.0845 21.2022 37.8815 21.4052 37.6291 21.4052C37.3767 21.4052 37.1738 21.2022 37.1738 20.9498V16.339C37.1738 15.5532 36.5337 14.9105 35.7453 14.9105H28.1369C27.3484 14.9105 26.7083 15.5506 26.7083 16.339V21.3349C26.7083 21.5873 26.5028 21.7903 26.253 21.7903Z" fill="#01238C" stroke="#01238C" stroke-width="0.4"/>
<path d="M32.4056 16.0566H31.5225L31.5225 18.9356H32.4056L32.4056 16.0566Z" fill="#01238C"/>
<path d="M33.4489 17.1468L30.4509 17.1467V17.9364L33.4489 17.9364V17.1468Z" fill="#01238C"/>
<path d="M30.4785 45.6699L32.0033 47.3352L33.5281 45.6699L32.7995 42.9221C32.1438 43.3202 31.4881 43.5856 30.9859 43.7574L30.4785 45.6699Z" fill="#39C3BC"/>
</svg>
