<?xml version="1.0" encoding="UTF-8"?><svg id="finish" xmlns="http://www.w3.org/2000/svg" viewBox="0 0 68 68"><defs><style>.cls-1{fill:#04268d;}.cls-2{fill:#39c2bc;}</style></defs><g id="WCLHS2.tif"><g><path class="cls-1" d="M67.47,40.64c-4.88-5.43-10.5-9.91-17.07-13.15-4.36-2.15-8.93-3.57-13.79-3.99-4.98-.43-9.8,.35-14.46,2.06C13.36,28.82,6.11,34.26,0,41.3v.8c.75,1.22,1.61,1.29,2.58,.24,.06-.07,.13-.12,.18-.2,.31-.5,.53-.37,.82,.05,1.56,2.33,3.42,4.4,5.53,6.24,6.05,5.26,13.07,8.36,21.07,9.24,4.45,.49,8.84,.16,13.15-1,8.76-2.36,15.91-7.09,21.16-14.56,.25-.36,.43-.45,.69-.05,.08,.13,.2,.24,.31,.35,.69,.74,1.5,.85,2.09,.29,.59-.55,.56-1.31-.11-2.05Zm-4.87-.44c-5.2,7.58-12.35,12.38-21.29,14.18-13.3,2.68-24.55-1.28-33.7-11.26-.86-.95-1.58-2.01-2.3-3.08-.18-.26-.14-.4,.07-.61,6.11-5.77,12.93-10.34,21.18-12.46,2.45-.63,4.95-.92,7.15-.93,6.02,.04,11.31,1.62,16.32,4.21,4.61,2.39,8.7,5.48,12.47,9.03,.34,.32,.39,.5,.11,.91Z"/><path class="cls-1" d="M34.4,10.11c.73,.41,.96,1.04,.94,1.86-.04,2.32-.01,4.64-.01,6.95,0,.2,0,.4-.02,.59-.1,.71-.69,1.23-1.36,1.2-.7-.03-1.26-.58-1.27-1.36-.02-2.63-.01-5.25,0-7.88,0-.71,.44-1.12,1.06-1.37h.66Z"/><path class="cls-1" d="M19.53,20.87c0,.5-.22,.89-.65,1.15-.44,.26-.88,.25-1.32,0-.15-.09-.29-.2-.42-.32-1.78-1.78-3.56-3.55-5.34-5.34-.3-.3-.53-.65-.53-1.1,0-.99,1.08-1.62,1.94-1.13,.17,.1,.33,.22,.47,.36,1.77,1.76,3.53,3.52,5.3,5.29,.3,.3,.55,.64,.55,1.09Z"/><path class="cls-1" d="M49.57,22.2c-.27,0-.66-.22-.92-.65-.26-.44-.25-.89,0-1.32,.11-.19,.26-.35,.42-.51,1.71-1.72,3.43-3.44,5.15-5.15,.32-.32,.65-.6,1.13-.61,.5,0,.89,.2,1.16,.63,.27,.43,.28,.88,.02,1.31-.12,.21-.29,.39-.45,.56-1.7,1.7-3.4,3.4-5.11,5.1-.33,.33-.68,.64-1.42,.63Z"/><path class="cls-1" d="M44.63,40.47c.01,5.65-4.27,10.3-9.76,10.75-5.41,.44-10.37-3.37-11.31-8.69-.1-.58-.15-1.18-.17-1.78-.03-.97,.48-1.57,1.3-1.59,.82-.01,1.31,.55,1.35,1.54,.14,3.5,2.13,6.34,5.32,7.42,3.05,1.03,5.84,.45,8.15-1.78,2.31-2.23,3.04-5,2.07-8.07-.98-3.08-3.16-4.91-6.36-5.49-1.39-.25-2.73-.07-4.04,.41-.33,.12-.66,.27-1.02,.24-.59-.05-1.07-.5-1.18-1.09-.11-.6,.21-1.2,.86-1.48,1.64-.7,3.35-.99,5.12-.81,4.76,.48,8.49,3.85,9.46,8.51,.14,.67,.22,1.35,.21,1.89Z"/><path class="cls-2" d="M34,44.61c-2.16,0-3.97-1.8-3.98-3.96-.01-2.19,1.83-4.02,4.02-3.99,2.17,.02,3.96,1.84,3.95,4-.01,2.16-1.82,3.96-3.98,3.96Z"/><path class="cls-1" d="M26,34.01c.68-.02,1.32,.59,1.35,1.27,.03,.71-.61,1.37-1.32,1.37-.69,0-1.31-.62-1.32-1.31,0-.68,.6-1.31,1.29-1.33Z"/><path class="cls-2" d="M35.32,40.65c0,.69-.63,1.3-1.31,1.31-.71,0-1.35-.66-1.33-1.36,.03-.69,.66-1.29,1.35-1.28,.69,.02,1.3,.64,1.29,1.33Z"/></g></g></svg>