<?xml version="1.0" encoding="UTF-8"?><svg id="finish" xmlns="http://www.w3.org/2000/svg" viewBox="0 0 68 68"><defs><style>.cls-1{fill:#b9b9b9;}.cls-2{fill:#39c2bc;}.cls-3{stroke-width:.15px;}.cls-3,.cls-4{fill:#04268d;stroke:#04268d;stroke-miterlimit:10;}.cls-4{stroke-width:.47px;}</style></defs><g id="BlEoMO.tif"><g><path class="cls-4" d="M59.89,41.16c.01-3.41-.79-6.62-2.26-9.65-2.6-5.35-6.64-9.24-12.11-11.6-.76-.33-1.55-.59-2.34-.86-.17-.05-.45-.09-.36-.36,.08-.28,.35-.2,.55-.13,.33,.11,.63,.31,.94,.46,.93,.48,1.9,.77,2.97,.63,1.48-.19,2.64-.9,3.52-2.07,.4-.53,.89-.89,1.55-1.02,.74-.15,1.38,.07,1.98,.48,.87,.58,1.83,.84,2.86,.84,.64,0,.81-.23,.76-.86-.03-.33-.11-.65-.16-.98-.07-.43-.3-.71-.76-.76-.62-.08-1.16-.36-1.7-.66-.97-.55-1.99-.85-3.14-.68-1.45,.22-2.58,.92-3.47,2.05-.52,.66-.73,.78-1.52,.99,1.33-.72,2.24-1.81,2.56-3.31,.53-2.5,.87-2.8,3.44-2.88,.9-.02,1.72-.32,2.46-.8,.31-.2,.51-.47,.26-.82-.3-.43-.62-.85-1.02-1.2-.19-.17-.42-.26-.66-.13-.71,.36-1.48,.34-2.25,.37-1.53,.07-2.77,.72-3.72,1.93-.66,.85-.88,1.84-1.08,2.86-.23,1.21-1.08,1.88-2.32,1.9-.57,0-1.14-.04-1.7,.12-.79,.22-1.08-.45-1.49-.85-.34-.31-.01-.66,.14-.95,1.46-2.94,2.94-5.88,4.4-8.82,.55-1.12,.11-1.95-1.13-2.12-.69-.09-1.29-.34-1.83-.8-.63-.54-1.31-1.02-2.18-1.12h-2.89c-.85,.1-1.54,.54-2.17,1.08-1.32,1.13-2.7,1.16-4.01,.02-.66-.57-1.35-1-2.23-1.11h-2.89c-.79,.11-1.43,.51-2.01,1.02-.54,.46-1.13,.8-1.86,.9-1.45,.19-1.84,.95-1.2,2.23,1.46,2.92,2.9,5.85,4.38,8.75,.26,.5,.28,.82-.19,1.24-1.17,1.04-1.42,2.37-.89,3.82,.17,.44,.1,.62-.36,.76-4.52,1.39-8.29,3.91-11.3,7.56-2.6,3.15-4.28,6.74-5.05,10.77-.2,1.05-.17,2.13-.33,3.18v.79c.12,.18,.07,.39,.07,.58,0,6.54,0,13.08,0,19.62,0,.19,.05,.4-.07,.58v.26c.11,.13,.06,.29,.08,.44,.14,1.51,.89,2.67,2.05,3.6,1.04,.82,2.22,1.16,3.54,1.16,8.54-.01,17.08,0,25.62,0,4.95,0,9.9-.06,14.85,.02,3.45,.06,5.71-3.02,5.67-5.64-.09-6.94-.05-13.89-.02-20.83ZM24.68,4.91c-.17-.33-.23-.51,.2-.67,.55-.21,1.02-.58,1.47-.97,1.28-1.09,2.78-1.08,4.05,0,2.27,1.94,4.93,1.94,7.18,0,1.23-1.07,2.73-1.08,3.99-.03,.49,.41,.99,.8,1.58,1.04,.3,.13,.34,.23,.19,.53-1.43,2.84-2.85,5.7-4.26,8.55-.15,.31-.36,.32-.63,.32h-4.46c-1.47,0-2.93-.01-4.4,0-.37,0-.57-.1-.75-.45-1.37-2.78-2.76-5.55-4.15-8.32Zm16.02,12.14c0,.68-.45,1.11-1.26,1.11-1.82,.01-3.64,0-5.46,0s-3.64,.01-5.46,0c-.94-.01-1.49-.73-1.2-1.51,.2-.51,.61-.73,1.14-.73,3.68,0,7.36-.01,11.04,0,.75,0,1.19,.47,1.19,1.13Zm16.83,44.59c0,2.3-1.38,3.67-3.67,3.67-6.64,0-13.27,0-19.91,0s-13.1-.04-19.65,.02c-2.28,.03-3.91-1.52-3.88-3.84,.08-6.79-.01-13.59,.05-20.38,.08-8.22,5.53-16.04,13.17-19.09,2.47-.98,5-1.58,7.66-1.58,3.06,0,6.14-.29,9.16,.42,8.69,2.04,14.19,7.42,16.5,16.04,.45,1.66,.57,3.36,.57,5.08-.01,6.55,0,13.11,0,19.66Z"/><path class="cls-1" d="M8.1,41.39c.25,.12,.13,.35,.13,.52,0,6.58,0,13.16,0,19.74,0,.17,.12,.4-.13,.52v-20.78Z"/><path class="cls-3" d="M34,28.26c-8.65-.02-15.7,7.02-15.71,15.7-.02,8.67,7,15.7,15.67,15.72,8.68,.01,15.7-7,15.72-15.69,.01-8.66-7.03-15.72-15.68-15.74Zm-.03,29.18c-7.43,0-13.43-6.02-13.43-13.46s6-13.46,13.43-13.48c7.43-.02,13.49,6.06,13.47,13.5-.03,7.45-6.03,13.44-13.46,13.43Z"/><path class="cls-2" d="M41.49,38.05c-.11,.11-.2,.21-.29,.3-4.27,4.28-8.55,8.55-12.82,12.83-.25,.25-.4,.32-.66,.01-.3-.35-.63-.68-.97-.98-.28-.24-.21-.38,.02-.61,4.28-4.27,8.55-8.54,12.82-12.83,.26-.26,.41-.29,.67,0,.31,.36,.68,.69,1.02,1.03,.07,.07,.14,.16,.22,.24Z"/><path class="cls-2" d="M38.55,45.1c-1.84-.07-3.4,1.45-3.44,3.32-.03,1.85,1.41,3.35,3.28,3.41,1.87,.05,3.41-1.44,3.45-3.31,.04-1.81-1.45-3.35-3.29-3.42Zm-.15,4.48c-.61-.04-1.05-.51-1.04-1.13,.01-.63,.54-1.13,1.14-1.11,.61,.03,1.11,.58,1.08,1.18-.04,.62-.57,1.08-1.19,1.05Z"/><path class="cls-2" d="M29.49,36.13c-1.83,0-3.34,1.51-3.37,3.34-.02,1.85,1.51,3.39,3.38,3.38,1.85,0,3.33-1.46,3.35-3.32,.02-1.88-1.49-3.4-3.36-3.4Zm.01,4.48c-.62,0-1.14-.52-1.13-1.13,0-.58,.51-1.09,1.09-1.11,.61-.02,1.13,.48,1.14,1.1,.01,.64-.47,1.13-1.1,1.13Z"/></g></g></svg>