<?xml version="1.0" encoding="UTF-8"?><svg id="finish" xmlns="http://www.w3.org/2000/svg" viewBox="0 0 68 68"><defs><style>.cls-1{fill:#39c2bc;}.cls-2{fill:#04268d;stroke:#04268d;stroke-miterlimit:10;stroke-width:.45px;}</style></defs><g id="PlKwXt.tif"><g><path class="cls-2" d="M64.21,9.78c-.16-.62-.1-1.26-.29-1.89-.66-2.16-1.9-3.93-3.64-5.32-1.55-1.23-3.27-2.15-5.34-2.14-.3-.04-.61,.08-.89-.08H13.98c-.28,.19-.62-.02-.92,.13C8.12,.99,3.89,5.62,3.84,10.73c-.06,6.05-.07,12.1,0,18.16,.07,5.47,4.74,10.14,10.22,10.34,.54,.02,1.26-.18,1.59,.09,.39,.33,.12,1.07,.14,1.63,.09,3.13,2.17,5.91,5.16,6.89,3.03,.99,6.36-.07,8.27-2.6,1.17-1.56,1.62-3.34,1.51-5.27-.03-.53,.05-.78,.7-.75,1.26,.06,2.54,.04,3.81,0,.51-.02,.61,.16,.6,.62-.02,2.49-.01,4.98-.01,7.47,0,.98,.41,1.73,1.28,2.2,1,.54,2.05,.34,2.98-.59,3.09-3.07,6.17-6.15,9.24-9.25,.33-.33,.64-.45,1.1-.45,1.59-.01,3.18,.1,4.77-.13,4.5-.64,8.45-4.66,8.9-9.11,.15-.24-.05-.54,.13-.77V9.78ZM28.06,42.37c-.8,2.3-3.18,3.78-5.51,3.41-2.51-.41-4.34-2.43-4.37-4.92-.01-1.19-.14-2.39,.11-3.58,.53-2.52,2.87-4.24,5.43-4.01,2.51,.24,4.51,2.35,4.6,4.87,.02,.47,0,.94,0,1.42,0,.94,.05,1.88-.27,2.8Zm33.75-14.2c0,5.05-3.61,8.67-8.64,8.68-1.14,0-2.29,.03-3.44,0-.68-.02-1.17,.19-1.65,.68-3.01,3.04-6.05,6.06-9.08,9.1-.22,.22-.42,.48-.63,.72-.06-.03-.11-.07-.18-.1,0-2.56,0-5.12,0-7.68,0-1.77-.95-2.71-2.73-2.71-1.46,0-2.94-.02-4.41,0-.37,0-.51-.11-.61-.45-1.07-3.43-3.82-5.54-7.2-5.53-3.37,0-6.12,2.11-7.2,5.54-.07,.23-.11,.42-.46,.45-4.28,.39-8.12-2.31-9.15-6.49-.17-.7-.23-1.42-.22-2.15,0-5.6,0-11.21,0-16.82,.01-5.03,3.63-8.64,8.68-8.64,12.76,0,25.51,0,38.27,0,5.04,0,8.65,3.62,8.65,8.66,.01,5.59,.01,11.17,0,16.75Z"/><path class="cls-2" d="M13.98,.36c-.28,.21-.6,.17-.92,.13,.02-.04,.03-.08,.02-.13h.9Z"/><path class="cls-2" d="M54.94,.36s0,.09,.02,.13c-.32,.04-.64,.08-.92-.13h.9Z"/><path class="cls-2" d="M64.08,29.99c-.05-.27-.08-.54,.13-.77v.75s-.09,.02-.13,.02Z"/><path class="cls-2" d="M24.01,50.31c1.57,.05,3.57-.16,5.52,.42,4.54,1.34,7.72,5.46,7.77,10.19,.02,1.77,0,3.54,0,5.31,0,.88-.46,1.41-1.19,1.42-.73,0-1.19-.53-1.2-1.41,0-1.67,0-3.34,0-5.01-.03-4.89-3.66-8.51-8.57-8.53-1.87,0-3.74,0-5.6,0-4.9,.03-8.52,3.65-8.55,8.55,0,1.64,0,3.29,0,4.93,0,.93-.47,1.48-1.22,1.46-.73-.02-1.18-.55-1.16-1.44,.05-2.26-.17-4.54,.13-6.79,.66-4.95,5.13-8.96,10.15-9.1,1.17-.03,2.34,0,3.92,0Z"/><path class="cls-1" d="M33.78,14.42c-4.6,0-9.21,0-13.81,0-.22,0-.45,.01-.67,0-.66-.07-1.12-.55-1.12-1.18,0-.62,.45-1.12,1.1-1.2,.2-.02,.4,0,.6,0,9.33,0,18.67,0,28,0,.22,0,.45-.03,.67,.02,.64,.14,1.01,.54,1,1.2,0,.63-.38,1.01-.98,1.15-.24,.05-.5,.02-.74,.03-4.68,0-9.36,0-14.04,0Z"/><path class="cls-1" d="M33.87,21c-4.65,0-9.31,0-13.96,0-.25,0-.51,.03-.74-.03-.63-.15-1-.56-.98-1.22,.03-.62,.4-1,1.01-1.12,.22-.04,.45-.02,.67-.02,9.33,0,18.67,0,28,0,.2,0,.4-.01,.6,0,.65,.07,1.12,.58,1.09,1.2-.03,.66-.41,1.05-1.05,1.17-.22,.04-.45,.01-.67,.01-4.65,0-9.31,0-13.96,0Z"/><path class="cls-1" d="M27.38,25.18c2.54,0,5.07,0,7.61,0,.9,0,1.46,.52,1.4,1.27-.05,.69-.56,1.11-1.41,1.12-2.16,0-4.33,0-6.49,0-2.94,0-5.87,0-8.81,0-.96,0-1.49-.42-1.52-1.16-.02-.77,.54-1.23,1.52-1.23,2.56,0,5.12,0,7.69,0Z"/></g></g></svg>