<?xml version="1.0" encoding="UTF-8"?><svg id="finish" xmlns="http://www.w3.org/2000/svg" viewBox="0 0 68 68"><defs><style>.cls-1{fill:#04268d;stroke:#04268d;stroke-miterlimit:10;stroke-width:.32px;}.cls-2{fill:#39c2bc;}</style></defs><g id="QDpCN6.tif"><g><path class="cls-1" d="M60.6,12.19c-.06-.6-.09-1.2-.19-1.78C59.42,4.74,54.84,.56,49.03-.02c-5.5-.55-10.84,2.87-12.84,8.24-.16,.41-.35,.52-.77,.51-2.13-.02-10.29-.01-12.41,0-.83,0-1.33,.66-1.04,1.36,.2,.49,.62,.64,1.13,.64,1.97,0,9.98,0,11.95,0,.35,0,.48,.02,.44,.46-.21,1.89-.03,3.76,.64,5.56,.17,.46,.16,.6-.39,.6-6.16-.02-12.32-.01-18.48,0-.43,0-.56-.11-.55-.55,.02-1.84,.03-3.68,0-5.52,0-.45,.14-.55,.56-.54,2.24,.02,4.48,0,6.71,0,.83,0,1.29-.37,1.28-1.01,0-.64-.46-.98-1.3-.99h-7.25c-1.36,0-1.98,.63-1.99,1.99,0,1.73,0,3.46,0,5.19q0,1.41-1.4,1.41c-1.84,0-2.72,.89-2.72,2.74v12.77c0,2.75,0,5.5,0,8.25,0,1.74,.93,2.65,2.68,2.65,.33,0,.66,.02,1,0,.33-.03,.48,.06,.45,.43-.03,.46-.04,.93,0,1.39,.04,.46-.14,.55-.56,.55-1.59-.02-3.19,0-4.78-.01-.85-.01-1.53,.2-1.88,1.04-.31,.74-.12,1.36,.64,2.06,6.44,5.99,12.89,11.99,19.33,17.98,.37,.35,.76,.66,1.2,.92h.93c.29-.22,.61-.42,.88-.66,2.83-2.62,5.66-5.25,8.48-7.87,.15-.14,.31-.27,.42-.43,.3-.44,.28-.88-.1-1.27-.38-.38-.82-.4-1.27-.12-.2,.13-.37,.32-.55,.48-2.64,2.46-5.29,4.92-7.93,7.39-.27,.25-.43,.37-.77,.05-6.12-5.72-12.26-11.42-18.4-17.13-.11-.11-.33-.16-.27-.43,1.59,0,3.18,0,4.78,0,1.18,0,1.83-.65,1.85-1.79,0-.62,.05-1.25-.01-1.86-.06-.62,.17-.71,.73-.71,7.34,.02,14.67,.01,22.01,.01,.66,0,1.56-.23,1.92,.11,.42,.39,.12,1.3,.13,1.98,.01,1.73,.54,2.27,2.26,2.27h4.54c-.19,.2-.29,.31-.39,.41-2.11,1.97-4.22,3.93-6.33,5.89-.22,.21-4.78,4.38-4.84,4.72-.09,.46,.04,.84,.44,1.09,.54,.33,.97,.1,1.37-.28,2.43-2.26,9.17-8.51,11.6-10.77,.7-.65,.89-1.31,.58-2.02-.33-.76-.95-1.04-1.76-1.03-1.55,.02-3.1-.03-4.65,.02-.69,.03-.92-.17-.82-.84,.07-.49-.22-1.16,.12-1.45,.29-.24,.93-.08,1.42-.09,1.64,0,2.56-.91,2.58-2.53,.01-1.18,0-2.35,0-3.53,0-.86,.03-8.28-.02-9.15-.05-.84-.86-1.26-1.53-.82-.41,.27-.45,.67-.45,1.11,0,1.84-.03,10.24,.01,12.08,.01,.67-.18,.87-.86,.87-10.44-.02-20.87-.02-31.31,0-.66,0-.88-.16-.88-.85,.02-6.92,.02-13.84,0-20.76,0-.63,.17-.84,.82-.84,7.8,.02,15.6,.02,23.4,0,.43,0,.67,.15,.91,.49,1.78,2.49,4.13,4.17,7.1,4.92,.64,.16,.83,.4,.82,1.05-.05,1.51-.03,3.01,0,4.52,0,.85,.64,1.33,1.35,1.06,.51-.2,.64-.63,.64-1.13,0-1.51,.01-3.01,0-4.52,0-.44,.11-.58,.55-.56,.8,.03,1.59-.06,2.37-.24,5.78-1.27,9.6-5.79,10.07-11.9,.07-.27,.07-.54,0-.8Zm-12.64,10.95c-5.87-.02-10.57-4.77-10.55-10.64,.02-5.86,4.78-10.58,10.65-10.56,5.84,.02,10.55,4.81,10.52,10.68-.03,5.82-4.8,10.54-10.62,10.52Z"/><path class="cls-2" d="M40.03,26.56c0-1.38-.52-2.54-1.56-3.46-1.08-.94-2.35-1.1-3.72-1.09-2.96,.04-4.79,1.85-4.81,4.82,0,1.22,0,2.44,0,3.66h.02c0,1.47-.06,2.93,.01,4.39,.1,1.8,1.08,3.04,2.7,3.78,.89,.41,1.86,.4,2.8,.37,2.65-.08,4.49-1.9,4.54-4.55,.05-2.64,.02-5.28,0-7.91Zm-2,7.89c-.04,1.53-1.01,2.52-2.54,2.58-.42,.02-.85,.02-1.26-.02-1.37-.15-2.24-1.1-2.29-2.47v-4.05c0-1.26,0-2.53,0-3.79,.01-1.7,1-2.66,2.7-2.67h.73c1.64,.01,2.64,.99,2.66,2.64,.02,1.77,0,3.55,0,5.32,0,.82,.02,1.64,0,2.46Z"/><path class="cls-2" d="M21.6,37.04c1.96,0,3.77,0,5.59,0,.47,0,.83,.17,1.01,.61,.16,.37,.09,.74-.18,1.05-.22,.25-.52,.34-.84,.34-2.64,0-5.27,0-7.91,0-.45,0-.81-.19-1-.63-.21-.48-.01-.85,.32-1.19,2.21-2.24,4.41-4.49,6.61-6.73,1.09-1.11,1.48-3.27,.85-4.69-.56-1.25-2.02-1.99-3.41-1.71-1.44,.29-2.41,1.39-2.47,2.81,0,.15,0,.31,0,.47-.03,.64-.39,1.05-.94,1.07-.58,.03-1-.39-1.05-1.05-.2-2.42,1.46-4.65,3.83-5.2,3.32-.77,6.33,1.71,6.31,4.99,0,2.1-.59,3.77-2.13,5.19-1.48,1.36-2.84,2.86-4.25,4.3-.09,.09-.17,.19-.34,.39Z"/><path class="cls-2" d="M43.4,19.61c-.33-.03-.64-.18-.82-.52-.21-.39-.17-.77,.09-1.12,.49-.66,.98-1.31,1.48-1.96,2.45-3.25,4.89-6.51,7.34-9.76,.13-.18,.26-.37,.42-.51,.38-.33,.81-.34,1.22-.06,.41,.29,.52,.71,.33,1.17-.09,.22-.25,.41-.4,.61-2.86,3.8-5.71,7.61-8.57,11.41-.27,.36-.54,.71-1.09,.74Z"/><path class="cls-2" d="M51.39,13.66c-1.64-.03-3.02,1.31-3.03,2.95-.02,1.63,1.35,3.01,2.98,3.01,1.6,0,2.95-1.35,2.97-2.96,.02-1.6-1.31-2.97-2.92-3Zm-.05,3.96c-.53,0-1.01-.49-.99-1.02,.02-.52,.49-.96,1-.94,.52,0,.97,.47,.97,.98,0,.5-.46,.97-.97,.98Z"/><path class="cls-2" d="M44.71,5.5c-1.67-.02-3.02,1.29-3.02,2.96s1.31,2.95,2.95,2.96c1.64,0,2.96-1.29,3-2.92,.03-1.61-1.3-2.97-2.93-3Zm-.02,3.92c-.54,.01-.99-.4-1-.93-.02-.54,.4-.98,.94-.99,.54-.01,.99,.4,1.01,.93,.02,.52-.42,.98-.95,.99Z"/></g></g></svg>