<?xml version="1.0" encoding="UTF-8"?><svg id="finish" xmlns="http://www.w3.org/2000/svg" viewBox="0 0 68 68"><defs><style>.cls-1{fill:#39c3bc;}.cls-2{fill:#01238c;stroke:#01238c;stroke-width:.75px;}</style></defs><path class="cls-2" d="M30.19,45.28c-.61,0-1.2-.18-1.72-.53l-3.87-2.61c-1.41-.95-1.79-2.87-.84-4.29L48.12,1.72c.95-1.41,2.87-1.79,4.29-.84l3.87,2.61c1.41,.95,1.79,2.87,.84,4.29l-24.35,36.13c-.46,.69-1.16,1.14-1.97,1.31-.19,.03-.39,.06-.6,.06ZM50.68,2.36c-.35,0-.69,.17-.9,.48L25.43,38.98c-.33,.5-.2,1.17,.29,1.51l3.87,2.61c.24,.16,.53,.22,.81,.17,.29-.06,.53-.22,.69-.46L55.44,6.67c.33-.5,.2-1.17-.29-1.51l-3.88-2.61c-.18-.13-.38-.19-.6-.19Z"/><path class="cls-2" d="M3.46,68l15.29-22.69c.52-.76,1.29-1.28,2.19-1.45,.9-.18,1.81,.01,2.58,.52l3.3,2.22c1.56,1.05,1.98,3.17,.95,4.74-.57,.97-9.94,16.49-22.39,16.63l-1.91,.03Zm18.14-22.2c-.09,0-.18,.01-.27,.03-.37,.07-.7,.29-.91,.61l-13.05,19.36c10.49-1.73,18.6-15.35,18.69-15.49l.03-.05c.44-.65,.27-1.55-.39-1.99l-3.3-2.22c-.25-.17-.52-.25-.8-.25Z"/><path class="cls-2" d="M26.79,48.8c-.19,0-.39-.06-.56-.17-.46-.31-.58-.93-.27-1.39l2.5-3.7c.31-.46,.93-.58,1.39-.27,.46,.31,.58,.93,.27,1.39l-2.5,3.7c-.19,.28-.51,.44-.83,.44Z"/><path class="cls-2" d="M22.44,45.87c-.19,0-.39-.06-.56-.17-.46-.31-.58-.93-.27-1.39l2.5-3.7c.31-.46,.93-.58,1.39-.27,.46,.31,.58,.93,.27,1.39l-2.5,3.7c-.19,.29-.51,.44-.83,.44Z"/><path class="cls-1" d="M34.37,32.83c-.19,0-.39-.06-.56-.17-.46-.31-.58-.93-.27-1.39l12.14-18.02c.31-.46,.93-.58,1.39-.27,.46,.31,.58,.93,.27,1.39l-12.14,18.02c-.19,.29-.5,.44-.83,.44Z"/><path class="cls-2" d="M37.35,67.68h-5.8c-.56,.1-1-.35-1-.9s.45-1,1-1h5.8c.56,0,1,.45,1,1s-.45,1-1,.9Z"/><path class="cls-2" d="M26.14,67.68h-5.8c-.56,.1-1-.35-1-.9s.45-1,1-1h5.8c.56,0,1,.45,1,1s-.45,1-1,.9Z"/><path class="cls-2" d="M50.44,67.68h-5.8c-.56,0-1-.45-1-1s.45-1,1-1h5.8c.56,0,1,.45,1,1s-.45,1-1.01,1Z"/><path class="cls-2" d="M63.54,67.68h-5.8c-.56,0-1-.45-1-1s.45-1,1-1h5.8c.56,0,1,.45,1,1s-.45,1-1,1Z"/><path class="cls-1" d="M10.26,6.97l5.62,5.62,5.62-5.62c2.2-2.2,5.56,1.11,3.34,3.34l-5.62,5.61,5.62,5.62c2.19,2.19-1.14,5.53-3.34,3.34l-5.62-5.62-5.62,5.62c-2.19,2.19-5.53-1.14-3.34-3.34l5.62-5.62-5.62-5.61c-2.19-2.2,1.14-5.53,3.34-3.34Z"/></svg>