<?xml version="1.0" encoding="UTF-8"?><svg id="finish" xmlns="http://www.w3.org/2000/svg" viewBox="0 0 68 68"><defs><style>.cls-1{fill:#39c2bc;}.cls-2{fill:#04268d;stroke:#04268d;stroke-miterlimit:10;stroke-width:.33px;}</style></defs><g id="BX4Ei9.tif"><g><path class="cls-2" d="M63.62,46.42c-1-3.32-4.94-4.59-7.72-2.49-3.34,2.52-6.63,5.09-9.95,7.63-.63,.49-1.28,.95-2.12,1.22,1.49-3.96-1.43-7.07-5.03-6.87-3.48,.18-6.97,.03-10.45,.05-.56,0-.94-.15-1.34-.57-2.71-2.79-5.99-3.98-9.88-3.34-.87,.14-1.67,.52-2.54,.83,0-1.31,.01-2.53,0-3.75-.01-.73-.38-1.12-1.09-1.13-2.74-.01-5.47,0-8.21,0-.46,0-.82,.15-.99,.62-.14,.26-.07,.54-.07,.81,0,9.01,0,18.02,0,27.03,.11,.76,.36,1.05,1.16,1.06,2.66,.06,5.32,.06,7.99,0,.95-.02,1.41-.58,1.44-1.55,0-.17,0-.34,0-.52,.01-1,.05-1.03,1.02-.86,6.07,1.05,12.04,2.64,18.18,3.34h.6c.93,0,2.71-.14,2.83-.15,4.28-.39,8.08-1.96,11.38-4.71,1.79-1.5,3.56-3.04,5.33-4.56,2.61-2.24,5.23-4.46,7.82-6.71,1.65-1.43,2.29-3.23,1.65-5.36Zm-51.12,6.25c0,3.96-.02,7.92,.01,11.88,0,.57-.15,.69-.69,.68-1.67-.04-3.34-.03-5,0-.43,0-.59-.08-.59-.56,.02-8.01,.02-16.04,0-24.05,0-.44,.14-.54,.55-.53,1.69,.02,3.39,.05,5.07-.01,.62-.02,.66,.22,.66,.72-.02,3.96-.01,7.92-.01,11.88Zm48.13-2.51c-4.37,3.78-8.71,7.58-13.15,11.27-4.63,3.85-9.97,5.06-15.86,3.89-5.49-1.08-10.97-2.17-16.45-3.23-.45-.09-.6-.25-.59-.72,.03-2.59,.01-5.18,.01-7.77s.02-5.03-.01-7.55c-.01-.52,.17-.8,.6-1.05,2.86-1.68,6.56-1.32,9.34,.94,.54,.44,1.06,.91,1.48,1.46,.37,.48,.82,.65,1.42,.64,4.04-.02,8.07-.02,12.1,0,1.37,0,2.4,.94,2.62,2.29,.19,1.21-.52,2.39-1.7,2.83-.43,.16-.87,.16-1.32,.16h-11.35c-.17,0-.34,0-.52,0-.79,.03-1.28,.45-1.26,1.08,.02,.6,.48,1.01,1.24,1.01,4.68,0,9.36,.01,14.04-.01,2.27,0,4.24-.85,6.03-2.23,3.21-2.49,6.43-4.94,9.65-7.41,1.44-1.1,3.13-.99,4.18,.29,1.04,1.25,.87,2.95-.48,4.11Z"/><path class="cls-2" d="M4.26,66.61l-.13-.04v-27.95h.15c0,9.21,0,18.42,0,27.63,0,.12-.02,.25-.02,.37Z"/><path class="cls-1" d="M62.49,9.63c-.02-1.65-.9-2.52-2.55-2.53-1.27-.01-2.54-.03-3.81,.01-.54,.02-.65-.16-.64-.67,.04-1.32,.02-2.64,.01-3.96-.02-1.42-.9-2.33-2.32-2.38-.75-.02-1.5-.02-2.24,0-1.43,.05-2.3,.94-2.31,2.38-.01,1.32-.03,2.64,.01,3.96,.01,.51-.12,.69-.65,.67-1.34-.04-2.69-.03-4.03,0-1.42,.03-2.31,.94-2.33,2.36-.01,.69,0,1.39,0,2.09,.01,1.53,.88,2.42,2.4,2.43,1.32,.01,2.64,.03,3.96-.01,.54-.02,.67,.17,.65,.68-.03,1.37-.02,2.74,0,4.1,.02,1.3,.91,2.18,2.21,2.22,.72,.02,1.44,.01,2.17,0,1.6-.01,2.47-.89,2.48-2.5,.01-1.32,.02-2.64,0-3.96,0-.42,.11-.57,.55-.55,.72,.03,1.44,0,2.16,0,.64,0,1.29,.01,1.94,0,1.42-.02,2.31-.9,2.35-2.34,.02-.67,.01-1.34,0-2.02Zm-2.22,2.13c-.38,.41-1.22,.11-1.86,.12-.87,.02-1.74-.01-2.61,0-1.48,.03-2.36,.91-2.38,2.38-.01,1.35-.02,2.69,.01,4.04,.01,.45-.11,.63-.58,.59-.54-.04-1.09-.03-1.64,0-.41,.02-.49-.15-.49-.52,.02-1.32,.01-2.64,0-3.96-.01-1.65-.89-2.52-2.55-2.53-1.29-.01-2.59-.02-3.88,0-.46,.01-.63-.11-.58-.58,.08-.68-.29-1.57,.16-2,.41-.4,1.28-.1,1.94-.12,.85-.02,1.69,0,2.54,0,1.46-.01,2.35-.91,2.36-2.39,.02-1.32,.03-2.64,0-3.96-.02-.54,.17-.7,.68-.65,.64,.06,1.46-.26,1.88,.13,.43,.4,.1,1.22,.15,1.86,.02,.25,0,.5,0,.75,0,.7-.01,1.39,0,2.09,.03,1.25,.94,2.15,2.18,2.17,1.39,.02,2.79,.03,4.18,0,.51-.01,.67,.15,.63,.64-.06,.67,.27,1.51-.14,1.95Z"/><path class="cls-1" d="M23.8,15.08c-1.25-.01-2.49-.03-3.74,.01-.58,.02-.73-.17-.69-.72,.05-.67,.01-1.34,.01-2.02s.01-1.35,0-2.02c-.03-1.32-.9-2.19-2.2-2.23-.75-.02-1.5-.01-2.24,0-1.51,.02-2.42,.9-2.43,2.41,0,1.29-.03,2.59,.01,3.88,.02,.55-.11,.73-.69,.72-1.34-.05-2.69-.03-4.03,0-1.35,.02-2.22,.9-2.28,2.25-.02,.64,0,1.29,0,1.94,0,1.81,.85,2.67,2.64,2.68,1.2,0,2.39,.03,3.58-.02,.6-.02,.82,.1,.79,.76-.06,1.27-.03,2.54-.02,3.81,.02,1.52,.89,2.39,2.42,2.42,.7,.02,1.39,.02,2.09,0,1.51-.03,2.35-.88,2.37-2.38,.01-1.27,.05-2.54-.02-3.81-.04-.69,.21-.82,.84-.8,1.26,.05,2.53,.04,3.8,0,1.49-.03,2.35-.92,2.37-2.39,.01-.62,0-1.24,0-1.87,0-1.77-.82-2.6-2.59-2.62Zm.37,4.66c-.41,.43-1.28,.12-1.94,.14-.87,.02-1.74-.01-2.61,.01-1.43,.04-2.3,.91-2.32,2.36-.02,1.35-.02,2.69,.01,4.04,0,.46-.12,.63-.58,.58-.69-.08-1.57,.29-2.01-.16-.4-.41-.08-1.28-.11-1.95-.01-.2,0-.4,0-.6,0-.64,.01-1.29,0-1.94-.02-1.43-.89-2.31-2.33-2.33-1.34-.02-2.69-.02-4.03,0-.49,.01-.64-.14-.64-.64-.02-2.08-.04-2.08,2.01-2.08,.87,0,1.74,.01,2.61,0,1.48-.02,2.36-.9,2.37-2.38,.01-1.32,.03-2.64-.01-3.96-.02-.55,.18-.7,.68-.64,.66,.07,1.54-.28,1.92,.15,.33,.37,.1,1.23,.11,1.87,.01,.82,0,1.64,0,2.47,.01,1.6,.89,2.48,2.5,2.51,1.29,.02,2.59,.02,3.88-.01,.48-.01,.67,.11,.62,.62-.07,.66,.27,1.52-.13,1.94Z"/><path class="cls-1" d="M45.52,28.52c-1.27-.01-2.54-.03-3.8,.01-.57,.02-.78-.12-.75-.73,.05-1.29,.03-2.59,0-3.88-.03-1.51-.89-2.35-2.37-2.38-.69-.01-1.39-.01-2.09,0-1.54,.01-2.39,.86-2.41,2.4-.02,1.29-.03,2.59,0,3.88,.02,.57-.17,.72-.72,.7-1.29-.04-2.59-.03-3.88,0-1.55,.03-2.38,.88-2.4,2.43,0,.64,0,1.29,0,1.94,.01,1.65,.83,2.49,2.47,2.51,1.24,.01,2.48,.03,3.73-.01,.59-.02,.86,.12,.8,.77-.06,.64-.02,1.29-.02,1.94h0c0,.69-.02,1.39,0,2.09,.05,1.32,.93,2.17,2.24,2.2,.69,.01,1.39,0,2.09,0,1.69,0,2.53-.83,2.55-2.51,.01-1.27,.02-2.54-.01-3.81-.01-.51,.12-.69,.66-.68,1.32,.03,2.64,.03,3.96,0,1.5-.02,2.33-.86,2.36-2.38,.01-.69,.01-1.39,0-2.09-.03-1.53-.89-2.39-2.43-2.4Zm.23,4.65c-.42,.45-1.27,.12-1.93,.15-.87,.03-1.74,0-2.61,.01-1.41,.03-2.29,.89-2.31,2.29-.02,1.37-.02,2.74,0,4.11,0,.46-.14,.63-.6,.59-.68-.07-1.57,.29-2-.15-.33-.35-.11-1.23-.11-1.87-.01-.85,.01-1.69,0-2.54-.04-1.55-.88-2.39-2.42-2.42-.64-.01-1.29,0-1.94,0s-1.34-.02-2.02,0c-.42,.02-.66-.07-.61-.56,.07-.69-.28-1.57,.14-2.02,.38-.42,1.28-.11,1.94-.13,.82-.02,1.64,.01,2.46,0,1.59-.03,2.43-.86,2.45-2.47,.02-1.32,.02-2.64,0-3.96,0-.4,.09-.59,.53-.55,.69,.05,1.6-.21,2.03,.14,.46,.37,.12,1.3,.15,2,.03,.84-.01,1.69,.01,2.54,.03,1.42,.86,2.26,2.29,2.3,1.32,.03,2.64,.03,3.96,0,.52-.02,.79,.08,.72,.68-.07,.64,.26,1.47-.12,1.88Z"/></g></g></svg>