<svg width="28" height="28" viewBox="0 0 28 28" fill="none" xmlns="http://www.w3.org/2000/svg">
<rect width="28" height="28" rx="14" fill="#DD6666"/>
<path fill-rule="evenodd" clip-rule="evenodd" d="M19.754 9.66011C20.1445 9.26959 20.1445 8.63642 19.754 8.2459C19.3635 7.85537 18.7303 7.85537 18.3398 8.2459L13.9999 12.5858L9.65999 8.2459C9.26946 7.85537 8.6363 7.85537 8.24577 8.2459C7.85525 8.63642 7.85525 9.26959 8.24577 9.66011L12.5857 14L8.24577 18.3399C7.85525 18.7304 7.85525 19.3636 8.24577 19.7541C8.6363 20.1447 9.26946 20.1447 9.65999 19.7541L13.9999 15.4142L18.3398 19.7541C18.7303 20.1447 19.3635 20.1447 19.754 19.7541C20.1445 19.3636 20.1445 18.7304 19.754 18.3399L15.4141 14L19.754 9.66011Z" fill="white"/>
</svg>
